
        <svg xmlns="http://www.w3.org/2000/svg" xmlns:xlink="http://www.w3.org/1999/xlink" version="1.1" width="3159.8749480999436" 
        height="513.7169806833415" viewBox="0 0 3159.8749480999436 513.7169806833415">
			
			<g transform="scale(7.993747404997172) translate(10, 10)">
				<defs id="SvgjsDefs1098"></defs><g id="SvgjsG1099" featureKey="nRdZyp-0" transform="matrix(1.2616371800871615,0,0,1.2616371800871615,-12.840662240145056,-40.138678927252855)" fill="#113a5d"><g xmlns="http://www.w3.org/2000/svg"><path d="M90,61.3l-0.8-0.7l0.3-2.8c0.8-1.2,0.2-3.4,0.2-3.4c-0.5-0.7-0.8-1-0.8-1L88,51.2c-4.7-4-19.5-6-19.5-6   c-8.3-5.7-17.2-7.9-17.2-7.9c-7.5-1.8-22.8-0.7-22.8-0.7l-0.8-0.8l-1,0.3l-2.4-2.7l2.3,3.5c-1.6,0.3-7.9,1.3-7.9,1.3l0.3,0.7   l-6.8,6.7l-0.3,5.5c-0.3,1.2-0.8,1.4-0.8,1.4c-1,0.6-0.8,1.5-0.8,1.5l0.1,3.4c-0.5,0.4,0,1.3,0,1.3c0.3,1.3,2.4,2.3,2.4,2.3   c-0.5-8.2,7-8.4,7-8.4c8.1,0.4,7.9,9.7,7.9,9.7h39c-0.1-9.3,7.9-9,7.9-9c8.8,0.3,7.4,9.7,7.4,9.7C87.6,62.5,90,61.3,90,61.3z    M52.1,39.2c0,0,5.8,2.3,7.7,3.8l0.3,1.3l-1.2,0.2c0,0-0.8,0.1-0.7,1v1.3l-19.4-1.3l-1-7.6C37.9,37.7,48.2,37.7,52.1,39.2z    M21.7,41.9l3.5-2.9c0,0,9-1.3,10.1-1.1l0.3,6.5l-13.8-1.3C21.9,43.3,20.6,42.9,21.7,41.9z M13.2,50.5h-0.8l0.3-4.5l0.6-0.6   c0,0,1.3-0.2,2,0.4C15.2,45.8,14.6,48.4,13.2,50.5z M14.9,48.8l1-3l48.7,2.9l0.4,3L14.9,48.8z M88.3,59.6l-1.8-0.1   c0,0-0.6-0.2-0.6-1.3h2.4C88.3,58.2,88.7,59.1,88.3,59.6z M81.9,51.1c-0.7-0.8,0.9-0.9,0.9-0.9c3.9,0,4.7,1.2,4.7,1.2l0.9,2.9   L84,53.8L81.9,51.1z"></path><g><path d="M20.1,54c-3.4,0-6.1,2.7-6.1,6.1c0,3.4,2.7,6.1,6.1,6.1c3.4,0,6.1-2.7,6.1-6.1C26.2,56.7,23.5,54,20.1,54z M20.1,64.4    c-2.4,0-4.4-1.9-4.4-4.4c0-2.4,1.9-4.4,4.4-4.4c2.4,0,4.4,1.9,4.4,4.4C24.5,62.5,22.5,64.4,20.1,64.4z"></path><path d="M16.7,58.6c0,0,0.3-0.8,0.9-1.1l1.3,1.6c0,0,0.2,0.3-0.3,0.3L16.7,58.6z"></path><path d="M19.6,58.8L18.4,57c0,0,0.5-0.4,1.2-0.5l0.2,2.1C19.8,58.6,19.8,58.8,19.6,58.8z"></path><path d="M20.6,58.6l0.1-2.2c0,0,0.8,0,1.2,0.4l-1,1.9C20.9,58.7,20.7,58.8,20.6,58.6z"></path><path d="M21.5,59.2l1.4-1.8c0,0,0.7,0.5,0.8,0.9l-2,1.1C21.7,59.5,21.4,59.6,21.5,59.2z"></path><path d="M21.9,60.2l2.2-0.6c0,0,0.3,0.9-0.1,1.3l-2.1-0.4C21.9,60.5,21.6,60.3,21.9,60.2z"></path><path d="M21.7,61.1l2,0.6c0,0,0,1.1-0.9,1.2l-1.3-1.6C21.5,61.4,21.3,61.1,21.7,61.1z"></path><path d="M20.9,61.8l1.3,1.7c0,0-0.8,0.9-1.4,0.6l-0.2-2.1C20.7,61.9,20.6,61.6,20.9,61.8z"></path><path d="M20,62l0,2.1c0,0-0.9,0.2-1.4-0.3l1-1.9C19.5,61.9,19.7,61.8,20,62z"></path><path d="M19.1,61.4l-1.4,1.7c0,0-0.9-0.3-0.8-1l1.9-1C18.9,61.1,19.1,61.2,19.1,61.4z"></path><path d="M18.7,60.5l-2.3,0.6c0,0-0.4-0.8,0-1.4l2.2,0.3C18.6,60,18.9,60.4,18.7,60.5z"></path></g><g><path d="M74.5,54.7c-3.4,0-6.1,2.7-6.1,6.1c0,3.4,2.7,6.1,6.1,6.1c3.4,0,6.1-2.7,6.1-6.1C80.6,57.5,77.9,54.7,74.5,54.7z     M74.5,65.2c-2.4,0-4.4-1.9-4.4-4.4c0-2.4,1.9-4.4,4.4-4.4c2.4,0,4.4,1.9,4.4,4.4C78.9,63.3,76.9,65.2,74.5,65.2z"></path><path d="M71.1,59.4c0,0,0.3-0.8,0.9-1.1l1.3,1.6c0,0,0.2,0.3-0.3,0.3L71.1,59.4z"></path><path d="M74,59.5l-1.2-1.8c0,0,0.5-0.4,1.2-0.5l0.2,2.1C74.2,59.4,74.2,59.6,74,59.5z"></path><path d="M75,59.4l0.1-2.2c0,0,0.8,0,1.2,0.4l-1,1.9C75.3,59.4,75.1,59.6,75,59.4z"></path><path d="M75.9,60l1.4-1.8c0,0,0.7,0.5,0.8,0.9l-2,1.1C76.1,60.2,75.8,60.4,75.9,60z"></path><path d="M76.3,61l2.2-0.6c0,0,0.3,0.9-0.1,1.3l-2.1-0.4C76.3,61.3,76,61,76.3,61z"></path><path d="M76.1,61.9l2,0.6c0,0,0,1.1-0.9,1.2l-1.3-1.6C75.9,62.2,75.7,61.8,76.1,61.9z"></path><path d="M75.3,62.6l1.3,1.7c0,0-0.8,0.9-1.4,0.6l-0.2-2.1C75.1,62.7,75,62.4,75.3,62.6z"></path><path d="M74.4,62.7l0,2.1c0,0-0.9,0.2-1.4-0.3l1-1.9C73.9,62.7,74.1,62.6,74.4,62.7z"></path><path d="M73.5,62.2l-1.4,1.7c0,0-0.9-0.3-0.8-1l1.9-1C73.3,61.9,73.5,62,73.5,62.2z"></path><path d="M73.1,61.3l-2.3,0.6c0,0-0.4-0.8,0-1.4l2.2,0.3C73,60.8,73.3,61.1,73.1,61.3z"></path></g></g></g><g id="SvgjsG1100" featureKey="Q4qmbg-0" transform="matrix(2.3752386291231553,0,0,2.3752386291231553,124.47984759448975,-18.65737683667479)" fill="#111111"><path d="M7.9 16.46 l2.08 1.88 c-1.12 1.24 -2.58 1.82 -4.14 1.82 c-2.88 0 -5.2 -2.16 -5.2 -5.08 s2.32 -5.1 5.2 -5.1 c1.56 0 3.02 0.58 4.14 1.82 l-2.08 1.88 c-0.44 -1.02 -1.4 -1.26 -2.06 -1.26 c-1.22 0 -2.24 1.08 -2.24 2.66 c0 1.56 1.02 2.64 2.24 2.64 c0.66 0 1.64 -0.18 2.06 -1.26 z M13.563895833333332 13.04 l-2.2 -1.26 c1.1 -1.24 2.58 -1.82 4.12 -1.82 c2.96 0 4.16 1.62 4.16 3.14 l0 6.9 l-2.96 0 l0 -0.7 c-0.46 0.48 -1.28 0.84 -2.2 0.84 c-2.7 0 -3.74 -1.2 -3.74 -3.04 c0 -2.08 1.68 -3.48 4.4 -3.48 l1.54 0 c0 -0.74 -0.56 -1.22 -1.4 -1.22 c-0.86 0 -1.28 0.16 -1.72 0.64 z M16.68389583333333 16.740000000000002 l0 -0.88 l-1.74 0 c-0.78 0 -1.36 0.54 -1.24 1.3 c0.08 0.54 0.56 0.76 1.24 0.76 c1.3 0 1.74 -0.74 1.74 -1.18 z M27.967791666666663 10.26 l-0.4 2.22 c-0.74 -0.32 -0.88 -0.26 -1.22 -0.26 c-1.2 0 -1.9 0.64 -1.9 2.22 l0 5.56 l-2.96 0 l0 -9.88 l2.96 0 l0 0.88 c0.38 -0.68 1.42 -1.02 2.08 -1.02 c0.62 0 0.98 0.02 1.44 0.28 z M35.331687499999994 16.46 l2.08 1.88 c-1.12 1.24 -2.58 1.82 -4.14 1.82 c-2.88 0 -5.2 -2.16 -5.2 -5.08 s2.32 -5.1 5.2 -5.1 c1.56 0 3.02 0.58 4.14 1.82 l-2.08 1.88 c-0.44 -1.02 -1.4 -1.26 -2.06 -1.26 c-1.22 0 -2.24 1.08 -2.24 2.66 c0 1.56 1.02 2.64 2.24 2.64 c0.66 0 1.64 -0.18 2.06 -1.26 z M43.39558333333332 12.42 c-1.22 0 -2.24 1.08 -2.24 2.66 c0 1.56 1.02 2.64 2.24 2.64 c1.24 0 2.26 -1.08 2.26 -2.64 c0 -1.58 -1.02 -2.66 -2.26 -2.66 z M43.39558333333332 9.98 c2.9 0 5.22 2.18 5.22 5.1 s-2.32 5.08 -5.22 5.08 c-2.88 0 -5.2 -2.16 -5.2 -5.08 s2.32 -5.1 5.2 -5.1 z M65.85947916666666 20 l-2.98 0 l0 -5.64 c0 -1.52 -0.42 -2.16 -1.54 -2.16 c-1.2 0 -1.9 0.64 -1.9 2.16 l0 5.64 l-2.98 0 l0 -5.64 c0 -1.52 -0.4 -2.16 -1.54 -2.16 c-1.2 0 -1.92 0.64 -1.92 2.16 l0 5.64 l-2.96 0 l0 -9.88 l2.96 0 l0 0.9 c0.7 -0.7 1.76 -1.04 2.7 -1.04 c1.4 0 2.3 0.52 2.94 1.34 c0.54 -0.66 1.7 -1.26 3.44 -1.34 c2.78 0 3.78 1.32 3.78 4.38 l0 5.64 z M77.86337499999999 15.08 c0 2.92 -1.94 5.08 -4.84 5.08 c-0.6 0 -1.78 -0.36 -2.24 -0.82 l0 5.3 l-2.96 0 l0 -14.52 l2.96 0 l0 0.7 c0.42 -0.5 1.18 -0.84 2.04 -0.84 c2.9 0 5.04 2.18 5.04 5.1 z M74.88337499999999 15.08 c0 -1.58 -1.02 -2.86 -2.26 -2.86 c-0.76 0 -1.5 0.56 -1.9 1.36 c-0.18 0.4 -0.32 0.96 -0.32 1.5 c0 0.56 0.12 1.06 0.32 1.48 c0.42 0.82 1.12 1.36 1.9 1.36 c1.24 0 2.26 -1.28 2.26 -2.84 z M81.42727083333332 13.04 l-2.2 -1.26 c1.1 -1.24 2.58 -1.82 4.12 -1.82 c2.96 0 4.16 1.62 4.16 3.14 l0 6.9 l-2.96 0 l0 -0.7 c-0.46 0.48 -1.28 0.84 -2.2 0.84 c-2.7 0 -3.74 -1.2 -3.74 -3.04 c0 -2.08 1.68 -3.48 4.4 -3.48 l1.54 0 c0 -0.74 -0.56 -1.22 -1.4 -1.22 c-0.86 0 -1.28 0.16 -1.72 0.64 z M84.54727083333331 16.740000000000002 l0 -0.88 l-1.74 0 c-0.78 0 -1.36 0.54 -1.24 1.3 c0.08 0.54 0.56 0.76 1.24 0.76 c1.3 0 1.74 -0.74 1.74 -1.18 z M91.81116666666665 13.24 c0 1.18 5 0.62 5 3.74 c0 2.04 -1.8 3.18 -4.04 3.18 c-1.42 0 -2.84 -0.7 -3.96 -1.82 l1.94 -1.94 c0.56 0.68 1.36 1.2 2.02 1.26 s1.22 -0.22 1.32 -0.52 c0.24 -0.76 -1.14 -0.8 -1.56 -0.92 c-1.58 -0.48 -3.42 -1.14 -3.42 -3.1 c0 -2.34 2.44 -3.14 3.66 -3.14 c1.4 0 2.82 0.64 3.96 1.8 l-1.92 1.92 c-0.52 -0.68 -1.42 -1.22 -2.04 -1.22 c-0.32 0 -0.96 0.12 -0.96 0.76 z M100.59506249999998 13.24 c0 1.18 5 0.62 5 3.74 c0 2.04 -1.8 3.18 -4.04 3.18 c-1.42 0 -2.84 -0.7 -3.96 -1.82 l1.94 -1.94 c0.56 0.68 1.36 1.2 2.02 1.26 s1.22 -0.22 1.32 -0.52 c0.24 -0.76 -1.14 -0.8 -1.56 -0.92 c-1.58 -0.48 -3.42 -1.14 -3.42 -3.1 c0 -2.34 2.44 -3.14 3.66 -3.14 c1.4 0 2.82 0.64 3.96 1.8 l-1.92 1.92 c-0.52 -0.68 -1.42 -1.22 -2.04 -1.22 c-0.32 0 -0.96 0.12 -0.96 0.76 z"></path></g>
			</g>
		</svg>
	